<svg width="1440" height="231" viewBox="0 0 1440 231" fill="none" xmlns="http://www.w3.org/2000/svg">
<path d="M34.6056 99.8275L0 141.775V231L1440 229.997V146.287L1354.18 104.151C1340.15 97.2613 1323.7 97.3309 1309.73 104.339L1160.93 178.966C1146.62 186.144 1129.74 186.034 1115.52 178.671L893.198 63.5227C875.316 54.2611 855.054 50.6141 835.065 53.0591L577.392 84.5774L463.656 8.65832C447.515 -2.11627 426.616 -2.604 410.061 7.52372C322.541 61.0651 188.235 145.588 189.876 154.401C191.224 161.638 146.145 126.308 105.662 93.1429C84.1308 75.5041 52.318 78.3571 34.6056 99.8275Z" fill="#E4EBFF"/>
</svg>
